<svg xmlns="http://www.w3.org/2000/svg" version="1.1" xmlns:xlink="http://www.w3.org/1999/xlink" xmlns:svgjs="http://svgjs.dev/svgjs" viewBox="0 0 800 800"><defs><linearGradient x1="50%" y1="0%" x2="50%" y2="100%" id="ssscribble-grad"><stop stop-color="#131325" stop-opacity="1" offset="0%"></stop><stop stop-color="#6528F7" stop-opacity="1" offset="100%"></stop></linearGradient></defs><g fill="none" stroke-width="1.5" stroke="url(#ssscribble-grad)" stroke-linecap="round"><path d="M1033.47 212.48C1093.44 245.34 920.02 269.17 699.93 286.96 642.13 308.25 785.8 330.54 977.68 361.34 1053.38 405.59 945.73 468.82 746.69 555.21 579.88 654.98 539.5 768.16 612.12 878.55 746.16 961.95 852.21 1004.51 887.97 989.09 853.52 922.89 763.93 817.27 657.01 706.33 538.68 638.8 440.27 639.6 367.19 720.74 299.85 858.17 251.52 1002.45 218.66 1092.21 185.8 1088.33 169.96 992.21 175.33 848.7 186.43 712 225.07 630.72 286.45 623.85 336.43 687.47 371.9 787.52 355.7 885.1 269.29 959.07 116.07 982.1 -61.03 954.95 -176.72 886.29 -175.3 791.66 -42.7 690.61 122.11 586.61 200.29 496.69 100.49 424.41 -115.46 361.8 -277.83 313.4 -232.72 274.25 -25.31 238.8 141.44 205.89 81.47 173.03 -149.27 140.17 -296.29 108.92 -214.4 82.39 90.53 53.87 -121.78 87.07 -214.62 158.32 -81.68 208.73 111.11 256.19 257.75 281.78 308.49 265.87 262.71 203.89 173.69 95.72 72.07 -36.06 10.55 -165.59 -3.17 -253.31 17.74 -270.54 66.63 -207.98 122.01 -83.98 185.49 46.85 237.41 136.32 270.27 140.24 303.13 50.49 315.38 -87.11 313.87 -211.88 320.46 -280.35 331.35 -262.46 367.38 -170.86 438.06 -35.84 553.69 99.25 705.96 199.67 845.62 249.32 938.58 245.73 930.91 205.41 827.34 138.09 673.5 72.09 574.77 22.96 623.65 -12.78 809.49 -21.89 1012.66 -9.21 1070.44 16.93 931.87 54.41 718.25 95.1 649.04 139.28 802.71 179.62 1033.47 212.48Q1033.47 212.48 1033.47 212.48" opacity="0.90"></path><path d="M999.47 174.01C1063.87 204.52 919.88 236.12 705.91 270.8 600.16 308.63 678.73 355.19 856.43 414.53 998.34 482.04 994.33 565.39 859.19 661.83 669.97 756.74 530.92 848.63 489.58 921.21 543.69 959.52 645.22 954.94 739.13 902.1 807.84 818.62 822.29 717.71 794.29 630.56 735.75 593.63 664.7 620.52 599.36 713.13 529.78 845.89 477.38 977.33 446.87 1058.21 416.36 1057.92 409.17 976.16 421.2 847.11 429 713.33 444.55 617.02 450.2 580.66 425.32 608.69 360.62 681.97 244.89 771.42 103.95 859.75 -41.39 916.98 -135.49 934.34 -134.14 915.27 -31.27 862.58 126.17 790.46 229.53 703.41 206.19 616.62 41.9 538.52 -158.16 462.15 -254.09 398.48 -160.12 347.42 42.07 298.4 179.87 258.9 115.47 228.38 -98.26 197.87 -253.85 177.79 -216.2 169.26 -22.58 162.77 165.55 170.92 212.35 194.41 99.33 219.63 -71.56 256.17 -177.04 296.2 -159.66 321.29 -29.26 330.19 138.39 309.27 284.26 251.92 355.71 158.53 356.81 38.42 302.05 -82.79 231.06 -183.44 173.5 -233.85 123.42 -219.87 103.7 -140.94 108.54 -18.95 121.14 98.32 145.78 173.92 176.29 174.24 206.8 93.37 241.75 -31.87 286.69 -152.86 339.4 -233.71 414.63 -243.25 517.59 -183.96 628.03 -74.46 749.26 53.81 851.06 169.06 896.99 253.69 869.34 294.45 763.47 296.15 635.8 263.57 541.58 215.49 555.97 167.61 693.22 118.19 891.49 85.09 1026.88 70.46 1002.44 63.99 831.67 72.93 649.82 92.65 623.95 115.52 785.73 143.5 999.47 174.01Q999.47 174.01 999.47 174.01" opacity="0.42"></path><path d="M965.47 240.05C1032.94 268.21 917.81 305.36 718.47 351.68 578.76 399.6 590.92 459.09 725.79 529.94 892.06 602.07 975.14 682.3 935.69 763.71 797.34 833.06 630.54 887.52 502.72 914.65 443.04 910.06 457.45 869.06 514.86 794.98 598.79 709.95 668.98 625.71 710.45 567.62 734.13 560.15 729.91 608.49 708.97 707.85 680.62 833.54 649.21 951.9 621.05 1024.21 592.88 1027.03 569.28 958.86 544.52 845.23 512.33 718.54 465.32 613.78 392.82 553.9 302.54 547.97 185.97 588.69 58.63 657.02 -42.19 741.05 -97.03 813.65 -74.27 861.41 16.62 884.92 150.03 876.79 259.05 844.15 269.17 792.3 160.84 729.76 -26.07 665.86 -181.59 597.23 -209.78 535.24 -80.94 483.56 107.52 431.87 216.94 391.26 149.47 363.09 -126.6 327.72 39.56 323.03 247.17 348.22 218.05 363.3 85.32 379.46 -57.73 387.91 -140.96 377.15 -117.71 344.85 -11.94 284.43 139.1 199.76 277.76 93.76 372.68 -19.58 422.09 -150.24 350.09 -114.38 319.94 45.78 305.57 148.55 312 211.03 340.17 208.24 368.33 135.94 416.91 23.29 484.4 -91.53 551.82 -180.03 634.76 -212.35 721.97 -184.24 790.05 -105.51 833.4 3.98 828.92 118.33 777.41 221.75 679.18 296.14 565.05 337.65 496.19 347.44 506.35 333.42 618.9 307.48 791.29 269.48 949.28 235.63 999.04 212.32 820.1 186.15 686.54 202.95 965.47 240.05Q965.47 240.05 965.47 240.05" opacity="0.19"></path><path d="M931.47 380.04C1000.63 405.86 913.05 443.17 735.27 490.58 576.89 537.84 530.01 594.33 604.73 656.75 753.7 715.04 884.9 772.68 935.57 821.93 890.65 855.25 771.19 868.47 628.92 854.71 497.65 818.5 414.95 757.31 383.44 679.41 396.48 606.51 434.55 547.17 475.73 519.77 523.81 538.44 555.34 602.8 566.61 704.37 575.37 820.94 566.23 926.14 540.41 990.21 514.59 995.63 473.31 940.2 415.86 842.47 355.9 726.34 277.39 619.52 184.57 543.23 98.64 508.19 18.06 515.42 -34.77 554.7 -43.05 619.24 2.57 688.21 100 747.69 208.44 797.34 297.28 823.97 315.31 828.27 237.76 816.18 83.41 788.03 -84.48 750.91 -178.13 706.15 -145.94 660.53 2.47 619.1 170.29 576.17 252.63 540.68 183.47 514.86 -74.61 481.57 2.03 460.4 239.27 459.74 290.23 452.13 229.97 437.76 107.92 410.06 -21.77 365.97 -93.07 302.28 -87.18 218.79 -12.3 125.48 103.47 25.9 223.93 -65.53 337.86 -131.7 420.57 -162.09 472.86 -145.99 503.6 -88.63 518.1 3.48 528.9 109.64 534.07 197.41 547.13 247.62 572.95 242.23 598.77 178.17 636.13 78.21 679.65 -28.39 733.78 -144.85 736.38 -81.88 642.15 59.15 561.49 163.93 482.77 255.74 441.73 325.8 469.68 373.39 571.6 397.24 728.18 403.71 877.11 394.26 960.53 379.14 928.49 365.6 717.52 343.16 670.76 347.67 931.47 380.04Q931.47 380.04 931.47 380.04" opacity="0.67"></path><path d="M897.52 529.28C966.94 552.75 904.88 584.57 753.63 622.73 591.7 659.58 499.96 699.97 510.47 739.65 610.68 772.95 743.09 798.9 847.94 811.61 894.24 810.61 863.61 790.57 776.7 749.89 654.74 698.52 534.07 634.78 437.04 568.42 365.06 517.36 326.27 486.74 310.52 488.23 312.87 527.95 320.51 602.54 322.91 702.12 328.63 807.91 321.46 900.04 297.99 956.22 274.51 963.73 235.85 920.04 185.87 838.24 139.2 735.36 88.87 632.28 45.83 547.18 20.91 490.28 21.04 467.55 56.85 475.47 117.7 511.2 204.68 561.35 295.87 614.32 352.02 669.84 354.81 713.54 284.07 741.82 154.78 760.71 1.32 763.94 -116.08 754.86 -143.8 738.93 -65.42 716.2 87.45 690.75 229.64 663.39 286.94 636.99 217.52 613.52 56.49 590.05 -97.16 570.62 -159.76 553.7 -104.48 534.89 38.58 514.93 196.13 490.17 305.28 458.58 325.54 416.69 266.63 361.63 155.33 297.18 45.25 219.77 -26.86 133.49 -51.02 49.75 -19.86 -28.21 48.02 -88.39 142.4 -120.75 239.19 -119.06 324.03 -79.38 404.25 -11.48 465.79 78.23 510.88 172.06 551.89 244.8 582.93 283.73 606.41 276.22 629.88 220.04 644.67 132.66 647.93 35.93 647.11 -54.58 628.29 -115.81 588.74 -138.32 544.59 -122.61 486.45 -70.95 428.24 4.55 396.51 95.35 399.03 186.92 453.94 269.06 556.81 340.49 694.72 394.23 830.47 431.41 913.83 454.88 914.65 467.58 822.73 474.96 617.53 477.11 657.23 498.79 897.47 529.27Q897.52 529.28 897.52 529.28" opacity="0.91"></path><path d="M862.92 618.6C931.78 639.73 893.21 662.8 771.75 686.2 549.11 732.32 818.81 687.25 841.68 619.13 791.99 569.58 709.87 518.34 616.95 474.18 517.93 449.65 432.81 447.19 366.55 472.9 310.39 527.43 270.39 606.46 241.14 700.35 215.96 794.13 194.24 873.46 173.11 922.11 151.99 931.2 132.46 898.12 117.8 831.84 107.21 744.02 108.79 649.58 128.33 563.05 157.98 492.91 208.32 447.2 274.78 426.81 335.14 431.23 386.93 453.94 408.94 486.99 383.81 530.29 307.9 571.88 187.57 606.4 -13.05 662.76 302.64 642.96 250.92 613.31 107.41 592.19 -37.29 567.98 -118.04 540.15 -106.04 510.92 -7.32 475.56 132.88 432.59 267.73 385.84 351.05 329.54 367.41 264.25 320.23 197.17 235.86 125.25 146.1 54.26 40.24 -30.35 44.49 -68.9 119.69 -0.87 184.12 70.16 244.59 152.57 294.27 232.25 344.75 290.38 381.57 319.2 402.69 310.13 423.82 261.49 428.25 186.44 417.6 100.81 407.77 15.07 385.73 -51.93 357.9 -90.99 340.76 -101.23 332.66 -79.82 346.95 -33.29 391.03 32.85 469.25 109.13 578.85 186.37 696.3 263.38 805.72 331.31 874.9 387.67 880.53 436.05 816.16 473.46 696.79 502.31 572.06 525.65 485.37 544.87 481.52 562.86 570.42 579.3 719.41 597.48 862.92 618.6Q862.92 618.6 862.92 618.6" opacity="0.57"></path><path d="M829.51 606.98C895.4 625.76 876.11 640.32 784.6 649.99 653.12 658.61 527.05 660.43 443 654.09 418.53 644.84 453.43 625.84 527.41 597.11 623.78 566.59 710.39 528.95 769.41 487.89 799.05 453.39 792.28 424.23 758.29 406.84 702.59 408.38 637.49 429.71 573.74 472.94 506.43 535.58 448.98 613.66 404.24 698.81 360.24 779.78 328.52 846.73 309.74 888.24 290.96 898.37 286.01 874.66 294.6 823.04 303.93 751.2 327.22 669.13 361.99 587.71 393.2 513.16 427.37 453.56 454.13 412.08 459.18 389.07 438.99 383.27 384.74 390.4 301.11 410.21 192.24 435.02 76.32 459.83 -17.2 488.29 -68.95 511.45 -58.24 527.02 12.04 542.18 127.42 548.83 251.66 546.7 335.92 544.08 351.4 533.44 285.51 514.66 159.89 495.88 27.06 469.86 -64.54 437.07 -89.13 403.77 -38.34 362.97 65.31 315.27 193.1 267.15 307.13 213.07 382.63 155.67 410.62 101.92 392.15 50.15 343.02 5.74 271.44 -26 201.25 -42.46 145.48 -39.01 100.49 -17.07 78.21 25.68 75.14 86.46 83.54 154.11 102.71 225.5 125.89 290.1 152.26 334.47 176.39 354.37 195.16 344.24 213.95 302.73 226.49 239.58 235.53 165.86 247.76 87.95 262.75 20.56 286.88 -28.31 322.49 -57.77 375.68 -62.26 449.6 -44.25 534.31 -7.31 631.46 44.1 727.66 103.22 801.41 168.88 842.16 233.49 833.74 292.95 777.81 350.62 680.63 400.54 566.6 442.34 476.69 481.21 436.56 513.55 468.37 540.35 567.2 566.08 703.82 588.19 829.46 606.97Q829.51 606.98 829.51 606.98" opacity="0.71"></path><path d="M795.46 499.51C855.43 532.37 684.4 535.11 470.78 508.99 381.19 481.89 457.07 432.13 589.41 381.19 711.32 365.81 744.48 394.85 714.03 485.74 648.37 620.47 583.35 764.48 550.49 854.23 517.63 850.31 520.04 753.9 528.75 616.85 502.25 480.6 417.81 385.97 252.83 341.31 22.05 349.67 300.57 396.37 319.46 362.85 88.71 329.99 -53.88 268.68 14.68 189.46 221.9 117.33 399.14 46.27 456.76 4.72 403.3 6.32 310.86 66.1 248.98 178.26 196.37 291.22 191.66 374.31 224.52 378.23 257.38 288.48 324.7 157.79 434.26 47.14 553.09 -19.65 696.82 -13.84 793.34 44.61 778.79 138.62 636.41 239.66 453.27 323.71 408.79 406.78 564.71 466.65 795.46 499.51Q795.46 499.51 795.46 499.51" opacity="0.10"></path><path d="M761.52 346.07C828.93 374.24 715.26 375.8 526.94 357.47 376.83 344.53 342.62 325.31 396.63 318.65 504.78 343.64 593.3 406.05 634.03 508.22 656.62 629.76 645.87 747.91 617.71 820.22 589.54 823.04 546.62 754.28 475.21 646.21 385.68 524 253.19 418.71 108.13 345.79 17.2 300.71 21.54 280.25 151.01 269.03 318.68 267.12 420.93 256.37 353.52 228.2 157.15 200.03 2.97 157.12 -4.2 110.22 124 72.63 301.01 49.13 433.53 57.29 500.85 93.29 501.34 168.69 480.95 270.26 441.76 357.67 428.01 415.03 456.18 412.24 484.33 339.94 551.74 233.2 639.74 132.29 708.95 50.76 752.43 18.22 722.05 30.15 626.46 73.72 479.33 136.9 371.74 198.65 399.53 265.8 565.1 317.9 761.47 346.06Q761.52 346.07 761.52 346.07" opacity="0.89"></path><path d="M727.52 217.52C796.94 240.99 735.32 251.12 594.82 254.07 437.43 263.54 331.31 278.3 293.63 309.32 314.22 360.95 361.78 438.42 400.18 536.49 443.98 637.98 457.49 730.05 434.02 786.22 410.54 793.73 352.31 749.18 267.84 671.32 188.76 573.98 104.57 477.39 53.21 397.1 60.14 328.84 141.36 280.14 281.54 246.45 404.84 219.53 456.94 196.5 387.52 173.03 152.36 138.71 115.49 113.15 302.09 156.68 425.42 206.2 507.63 277.89 553.31 358.02 581.06 418.68 599.54 453.73 623.01 446.24 646.48 390.07 672.72 307.52 685.65 223.23 680.66 142.35 635.1 89.78 542.54 68.9 444.23 68.65 354.05 90.51 331.6 121.72 408.68 159.45 566.43 194.04 727.47 217.51Q727.52 217.52 727.52 217.52" opacity="0.67"></path><path d="M693.25 173.31C759.34 192.09 739.76 211.66 655.67 234.41 534.16 261.45 416.1 298.87 328.77 349.69 269.2 409.69 242.2 484.25 231.91 566.16 233.2 643.59 229.68 710.66 210.9 752.17 192.12 762.32 159.86 737.61 126.03 688.04 103.78 620.69 101.48 546.5 136.43 477.39 199.15 409.45 297.3 353.05 405.04 310.62 475.37 270.99 487.34 241.55 421.25 222.78 295.53 204 167.65 197.65 83.76 204.74 54.66 214.63 88.04 241.73 157.35 285.06 250.97 329.55 340.04 383.83 407.64 437.42 472.07 473.22 514.3 490.32 533.08 480.17 551.86 438.66 545.41 379.2 513.52 315.53 478.46 247.39 418.69 192.75 349.69 157.36 304.99 131.15 291.52 123.04 334.38 128.53 432.04 138.33 567.53 154.53 693.25 173.31Q693.25 173.31 693.25 173.31" opacity="0.29"></path><path d="M659.52 234.01C726.93 262.17 616.08 327.91 465.42 424.71 317.23 528.16 234.1 645.91 205.93 718.22 177.76 721.03 209.89 650.99 321.17 562.21 434.91 460.79 522.93 382.72 455.52 354.55 259.13 326.38 115.74 353.45 101.37 417.95 170.06 469.82 261.3 517.03 289.47 514.22 317.63 441.91 277.4 346.99 245.62 280.46 296.91 220.58 463.13 205.84 659.52 234.01Q659.52 234.01 659.52 234.01" opacity="0.74"></path><path d="M625.47 371.4C672.61 408.96 462.08 575.85 424.53 684.21 386.97 671.67 536.61 544.84 489.47 507.28 226.16 469.73 136 535.67 173.56 548.21 211.11 439.85 362.16 333.85 625.47 371.4Q625.47 371.4 625.47 371.4" opacity="0.11"></path></g></svg>